# xmcd
#
# Track frame offsets: 
#        150
#        24013
#        39090
#        58380
#        78218
#        91763
#        106875
#        119693
#        132413
#        148948
#
# Disc length: 2071 seconds
#
# Revision: 7
# Processed by: cddbd v1.5.2PL0 Copyright (c) Steve Scherf et al.
# Submitted via: ExactAudioCopy v0.95b4
#
DISCID=7e08150a
DTITLE=Kiss - Destroyer
DYEAR=1976
DGENRE=Hard Rock
TTITLE0=Detroit Rock City
TTITLE1=King Of The Night Time World
TTITLE2=God Of Thunder
TTITLE3=Great Expectations
TTITLE4=Flaming Youth
TTITLE5=Sweet Pain
TTITLE6=Shout It Out Loud
TTITLE7=Beth
TTITLE8=Do You Love Me?
TTITLE9=Rock And Roll Party (Bonus Track)
EXTD=YEAR: 1976
EXTT0=
EXTT1=
EXTT2=
EXTT3=
EXTT4=
EXTT5=
EXTT6=
EXTT7=
EXTT8=
EXTT9=
PLAYORDER=
